<svg width="43" height="44" viewBox="0 0 43 44" fill="none" xmlns="http://www.w3.org/2000/svg">
<path d="M17.448 26.7641C18.0531 27.3411 18.0531 28.2765 17.448 28.8535L15.3393 30.8641L17.448 32.8746C18.0531 33.4516 18.0531 34.3871 17.448 34.964C16.8429 35.541 15.8618 35.541 15.2567 34.964L13.148 32.9534L11.0394 34.964C10.4343 35.541 9.45321 35.541 8.8481 34.964C8.24299 34.3871 8.24299 33.4516 8.8481 32.8746L10.9568 30.8641L8.8481 28.8535C8.24299 28.2765 8.24299 27.3411 8.8481 26.7641C9.45321 26.1871 10.4343 26.1871 11.0394 26.7641L13.148 28.7747L15.2567 26.7641C15.8618 26.1871 16.8429 26.1871 17.448 26.7641Z" fill="#E0DEEA"/>
<path fill-rule="evenodd" clip-rule="evenodd" d="M34.3242 6.24487V11.365H34.8407C39.1197 11.365 42.5881 14.672 42.5881 18.752V33.8195C42.5881 37.8858 39.1053 41.2066 34.8407 41.2066H20.1567C18.1383 42.4527 15.7319 43.1763 13.1481 43.1763C6.01803 43.1763 0.23584 37.663 0.23584 30.8646C0.23584 27.2989 1.8264 24.0868 4.36776 21.8382V14.2997C4.36776 11.2267 6.36378 8.47411 9.37747 7.38823L26.6348 1.17512C30.3511 -0.159422 34.3242 2.4552 34.3242 6.24487ZM10.4729 10.1523L27.7283 3.93987C29.4206 3.33247 31.2253 4.52299 31.2253 6.24487V11.365H10.0492C9.49047 11.365 8.95066 11.4418 8.44071 11.585C8.95528 10.9514 9.6511 10.4485 10.4729 10.1523ZM7.46671 19.8061C9.18124 19.0036 11.1096 18.5529 13.1481 18.5529C20.2804 18.5529 26.0604 24.0663 26.0604 30.8646C26.0604 33.636 25.0998 36.1939 23.4786 38.2518H34.8407C37.3938 38.2518 39.4891 36.2539 39.4891 33.8195V18.752C39.4891 16.3039 37.4082 14.3198 34.8407 14.3198H32.8462C32.8225 14.3208 32.7987 14.3213 32.7747 14.3213C32.7508 14.3213 32.727 14.3208 32.7033 14.3198H10.0492C8.62202 14.3198 7.46671 15.4214 7.46671 16.7821V19.8061ZM18.835 38.491C21.3327 36.7946 22.9614 34.0106 22.9614 30.8646C22.9614 25.6979 18.5686 21.5077 13.1481 21.5077C7.72952 21.5077 3.33478 25.698 3.33478 30.8646C3.33478 36.0311 7.72952 40.2215 13.1481 40.2215C15.2288 40.2215 17.1581 39.6041 18.7456 38.551C18.7746 38.53 18.8044 38.51 18.835 38.491Z" fill="#E0DEEA"/>
</svg>
