<svg width="36" height="31" viewBox="0 0 36 31" fill="none" xmlns="http://www.w3.org/2000/svg">
<path fill-rule="evenodd" clip-rule="evenodd" d="M28.4134 4.56114L31.0852 9.08816C32.5025 11.4891 34.0874 14.1727 34.7666 15.3182C35.1254 15.9047 35.2958 16.5871 35.2547 17.2735C35.0223 21.4919 31.6089 24.8359 27.3862 24.9813C27.3579 24.9823 27.3296 24.9823 27.3013 24.9813C23.0769 24.8397 19.6602 21.4958 19.4271 17.2762C19.3829 16.5862 19.5515 15.8993 19.9102 15.3083L26.2606 4.56046C26.4856 4.17972 26.895 3.94619 27.3372 3.94633C27.7794 3.94647 28.1887 4.18027 28.4134 4.56114ZM27.3361 7.65473L22.0489 16.603C21.9545 16.7576 21.9101 16.9377 21.9221 17.1185L21.9231 17.1334C22.0817 20.0484 24.4304 22.362 27.3427 22.4812C30.2532 22.3595 32.5996 20.0466 32.7586 17.1332L32.7591 17.1251C32.7699 16.9478 32.7257 16.7715 32.6324 16.6204L32.6209 16.6016C31.943 15.4583 30.3526 12.7651 28.9323 10.3591L27.3361 7.65473Z" fill="#FBAB34"/>
<path fill-rule="evenodd" clip-rule="evenodd" d="M19.4825 16.5339C19.4825 15.8435 20.0421 15.2839 20.7325 15.2839H33.9428C34.6331 15.2839 35.1928 15.8435 35.1928 16.5339C35.1928 17.2242 34.6331 17.7839 33.9428 17.7839H20.7325C20.0421 17.7839 19.4825 17.2242 19.4825 16.5339Z" fill="#FBAB34"/>
<path fill-rule="evenodd" clip-rule="evenodd" d="M8.66847 9.41581C9.11075 9.41589 9.52007 9.64969 9.74482 10.0306L16.0938 20.7915C16.4502 21.3801 16.6175 22.0638 16.5732 22.7504C16.3418 26.9681 12.9283 30.3119 8.70594 30.4556C8.67793 30.4566 8.64989 30.4566 8.62188 30.4556C4.39574 30.3151 0.977094 26.9694 0.745333 22.7473L0.745638 22.7527C0.704571 22.0589 0.87896 21.3695 1.24469 20.7789L7.59189 10.0302C7.81678 9.64937 8.22618 9.41572 8.66847 9.41581ZM8.66778 13.1249L3.38993 22.0627L3.37272 22.091C3.27652 22.2445 3.23057 22.4241 3.24127 22.6049L3.24159 22.6103C3.40157 25.5249 5.75097 27.8373 8.66295 27.9555C11.5735 27.8351 13.92 25.5217 14.0772 22.6083L14.0781 22.5918C14.0901 22.4138 14.0467 22.2364 13.9539 22.084L13.9446 22.0688L8.66778 13.1249Z" fill="#FBAB34"/>
<path fill-rule="evenodd" clip-rule="evenodd" d="M0.80748 22.0033C0.80748 21.313 1.36712 20.7533 2.05748 20.7533H15.2678C15.9581 20.7533 16.5178 21.313 16.5178 22.0033C16.5178 22.6937 15.9581 23.2533 15.2678 23.2533H2.05748C1.36712 23.2533 0.80748 22.6937 0.80748 22.0033Z" fill="#FBAB34"/>
<path fill-rule="evenodd" clip-rule="evenodd" d="M28.5364 4.84496C28.7305 5.50748 28.3507 6.20188 27.6882 6.39593L9.0148 11.8654C8.35228 12.0595 7.65789 11.6797 7.46383 11.0172C7.26978 10.3547 7.64954 9.66026 8.31207 9.46621L26.9854 3.99673C27.648 3.80267 28.3424 4.18244 28.5364 4.84496Z" fill="#FBAB34"/>
<path fill-rule="evenodd" clip-rule="evenodd" d="M16.6668 0.744995C17.3571 0.744995 17.9168 1.30464 17.9168 1.995V8.32243C17.9168 9.01279 17.3571 9.57243 16.6668 9.57243C15.9764 9.57243 15.4168 9.01279 15.4168 8.32243V1.995C15.4168 1.30464 15.9764 0.744995 16.6668 0.744995Z" fill="#FBAB34"/>
</svg>
