<svg width="12" height="12" viewBox="0 0 12 12" fill="none" xmlns="http://www.w3.org/2000/svg">
<path fill-rule="evenodd" clip-rule="evenodd" d="M2.10431 0.913395C1.77545 0.584532 1.24226 0.584532 0.913395 0.913395C0.584532 1.24226 0.584532 1.77545 0.913395 2.10431L4.80916 6.00008L0.913395 9.89585C0.584532 10.2247 0.584532 10.7579 0.913395 11.0868C1.24226 11.4156 1.77545 11.4156 2.10431 11.0868L6.00008 7.191L9.89585 11.0868C10.2247 11.4156 10.7579 11.4156 11.0868 11.0868C11.4156 10.7579 11.4156 10.2247 11.0868 9.89585L7.191 6.00008L11.0868 2.10431C11.4156 1.77545 11.4156 1.24226 11.0868 0.913395C10.7579 0.584532 10.2247 0.584532 9.89585 0.913395L6.00008 4.80916L2.10431 0.913395Z" fill="#8C8A97"/>
</svg>
