<svg width="14" height="16" viewBox="0 0 14 16" fill="none" xmlns="http://www.w3.org/2000/svg">
<path fill-rule="evenodd" clip-rule="evenodd" d="M4.36907 3.90481C4.36907 2.45189 5.5471 1.27386 7.00002 1.27386C8.45295 1.27386 9.63097 2.45189 9.63097 3.90481V4.91671H4.36907V3.90481ZM3.75926 6.13099C3.76015 6.131 3.76104 6.131 3.76193 6.131C3.76282 6.131 3.7637 6.131 3.76459 6.13099H10.2355C10.2363 6.131 10.2372 6.131 10.2381 6.131C10.239 6.131 10.2399 6.131 10.2408 6.13099H11.0475C11.6067 6.13099 12.0594 6.58369 12.0594 7.1429V13.6191C12.0594 14.1783 11.6067 14.631 11.0475 14.631H2.95226C2.39306 14.631 1.94036 14.1783 1.94036 13.6191V7.1429C1.94036 6.58369 2.39306 6.13099 2.95226 6.13099H3.75926ZM3.15479 4.91671V3.90481C3.15479 1.78125 4.87647 0.0595703 7.00002 0.0595703C9.12358 0.0595703 10.8453 1.78125 10.8453 3.90481V4.91671H11.0475C12.2773 4.91671 13.2737 5.91306 13.2737 7.1429V13.6191C13.2737 14.8489 12.2773 15.8453 11.0475 15.8453H2.95226C1.72243 15.8453 0.726074 14.8489 0.726074 13.6191V7.1429C0.726074 5.91306 1.72243 4.91671 2.95226 4.91671H3.15479ZM7.85856 10.2277C7.78163 10.3047 7.69695 10.3691 7.60703 10.4211V12.0729C7.60703 12.4082 7.3352 12.6801 6.99988 12.6801C6.66457 12.6801 6.39274 12.4082 6.39274 12.0729V10.421C6.30285 10.3691 6.2182 10.3046 6.1413 10.2277C5.66709 9.75351 5.66709 8.98467 6.1413 8.51046C6.61551 8.03625 7.38435 8.03625 7.85856 8.51046C8.33277 8.98467 8.33277 9.75351 7.85856 10.2277Z" fill="#E0DEEA"/>
</svg>
